<?xml version="1.0" encoding="UTF-8"?>
<svg xmlns="http://www.w3.org/2000/svg" xmlns:xlink="http://www.w3.org/1999/xlink" width="13px" height="15px" viewBox="0 0 13 14" version="1.1">
<g id="surface1">
<path style=" stroke:none;fill-rule:nonzero;fill:#526278;fill-opacity:1;" d="M 12.726562 7.617188 L 8.085938 11.992188 C 7.90625 12.164062 7.667969 12.25 7.429688 12.25 C 7.191406 12.25 6.953125 12.164062 6.773438 11.992188 C 6.410156 11.652344 6.410156 11.097656 6.773438 10.757812 L 9.832031 7.875 L 0.929688 7.875 C 0.414062 7.875 0 7.484375 0 7 C 0 6.515625 0.414062 6.125 0.929688 6.125 L 9.832031 6.125 L 6.773438 3.242188 C 6.410156 2.902344 6.410156 2.347656 6.773438 2.003906 C 7.136719 1.664062 7.722656 1.664062 8.085938 2.003906 L 12.730469 6.378906 C 13.089844 6.722656 13.089844 7.277344 12.726562 7.617188 Z M 12.726562 7.617188 "/>
</g>
</svg>
